<mxfile host="app.diagrams.net" modified="2023-05-28T10:52:41.598Z" agent="Mozilla/5.0 (Windows NT 10.0; Win64; x64) AppleWebKit/537.36 (KHTML, like Gecko) Chrome/113.0.0.0 Safari/537.36 Edg/113.0.1774.50" version="21.3.4" etag="oczGez1m1LdJShs5Xz82" type="device">
  <diagram id="IWjkEfxruRDeSBaM1mXx" name="第 1 页">
    <mxGraphModel dx="1828" dy="649" grid="1" gridSize="10" guides="1" tooltips="1" connect="1" arrows="1" fold="1" page="1" pageScale="1" pageWidth="827" pageHeight="1169" math="0" shadow="0">
      <root>
        <mxCell id="0" />
        <mxCell id="1" parent="0" />
        <mxCell id="3VFxZQKgpR7OsNjRWWTR-1" value="设计器初始化过程" style="text;html=1;align=center;verticalAlign=middle;resizable=0;points=[];autosize=1;strokeColor=none;fillColor=none;" vertex="1" parent="1">
          <mxGeometry x="30" y="68" width="120" height="30" as="geometry" />
        </mxCell>
        <mxCell id="3VFxZQKgpR7OsNjRWWTR-6" value="" style="edgeStyle=orthogonalEdgeStyle;rounded=0;orthogonalLoop=1;jettySize=auto;html=1;" edge="1" parent="1" source="3VFxZQKgpR7OsNjRWWTR-2" target="3VFxZQKgpR7OsNjRWWTR-5">
          <mxGeometry relative="1" as="geometry" />
        </mxCell>
        <mxCell id="3VFxZQKgpR7OsNjRWWTR-2" value="开始" style="whiteSpace=wrap;html=1;" vertex="1" parent="1">
          <mxGeometry x="40" y="110" width="100" height="30" as="geometry" />
        </mxCell>
        <mxCell id="3VFxZQKgpR7OsNjRWWTR-25" value="" style="edgeStyle=orthogonalEdgeStyle;rounded=0;orthogonalLoop=1;jettySize=auto;html=1;" edge="1" parent="1" source="3VFxZQKgpR7OsNjRWWTR-5" target="3VFxZQKgpR7OsNjRWWTR-9">
          <mxGeometry relative="1" as="geometry" />
        </mxCell>
        <mxCell id="3VFxZQKgpR7OsNjRWWTR-5" value="组件自动化扫描bootCore" style="whiteSpace=wrap;html=1;" vertex="1" parent="1">
          <mxGeometry x="40" y="170" width="100" height="40" as="geometry" />
        </mxCell>
        <mxCell id="3VFxZQKgpR7OsNjRWWTR-17" value="" style="edgeStyle=orthogonalEdgeStyle;rounded=0;orthogonalLoop=1;jettySize=auto;html=1;" edge="1" parent="1" source="3VFxZQKgpR7OsNjRWWTR-9" target="3VFxZQKgpR7OsNjRWWTR-16">
          <mxGeometry relative="1" as="geometry" />
        </mxCell>
        <mxCell id="3VFxZQKgpR7OsNjRWWTR-9" value="初始化设计器store" style="whiteSpace=wrap;html=1;" vertex="1" parent="1">
          <mxGeometry x="40" y="250" width="100" height="40" as="geometry" />
        </mxCell>
        <mxCell id="3VFxZQKgpR7OsNjRWWTR-14" value="" style="edgeStyle=orthogonalEdgeStyle;rounded=0;orthogonalLoop=1;jettySize=auto;html=1;" edge="1" parent="1" source="3VFxZQKgpR7OsNjRWWTR-11" target="3VFxZQKgpR7OsNjRWWTR-13">
          <mxGeometry relative="1" as="geometry" />
        </mxCell>
        <mxCell id="3VFxZQKgpR7OsNjRWWTR-11" value="初始化左侧组件库" style="whiteSpace=wrap;html=1;" vertex="1" parent="1">
          <mxGeometry x="40" y="410" width="100" height="40" as="geometry" />
        </mxCell>
        <mxCell id="3VFxZQKgpR7OsNjRWWTR-20" value="" style="edgeStyle=orthogonalEdgeStyle;rounded=0;orthogonalLoop=1;jettySize=auto;html=1;" edge="1" parent="1" source="3VFxZQKgpR7OsNjRWWTR-13" target="3VFxZQKgpR7OsNjRWWTR-19">
          <mxGeometry relative="1" as="geometry" />
        </mxCell>
        <mxCell id="3VFxZQKgpR7OsNjRWWTR-13" value="初始化右侧配置组件store" style="whiteSpace=wrap;html=1;" vertex="1" parent="1">
          <mxGeometry x="40" y="490" width="100" height="40" as="geometry" />
        </mxCell>
        <mxCell id="3VFxZQKgpR7OsNjRWWTR-18" value="" style="edgeStyle=orthogonalEdgeStyle;rounded=0;orthogonalLoop=1;jettySize=auto;html=1;" edge="1" parent="1" source="3VFxZQKgpR7OsNjRWWTR-16" target="3VFxZQKgpR7OsNjRWWTR-11">
          <mxGeometry relative="1" as="geometry" />
        </mxCell>
        <mxCell id="3VFxZQKgpR7OsNjRWWTR-16" value="初始化头部组件库" style="whiteSpace=wrap;html=1;" vertex="1" parent="1">
          <mxGeometry x="40" y="330" width="100" height="40" as="geometry" />
        </mxCell>
        <mxCell id="3VFxZQKgpR7OsNjRWWTR-24" value="" style="edgeStyle=orthogonalEdgeStyle;rounded=0;orthogonalLoop=1;jettySize=auto;html=1;" edge="1" parent="1" source="3VFxZQKgpR7OsNjRWWTR-19" target="3VFxZQKgpR7OsNjRWWTR-23">
          <mxGeometry relative="1" as="geometry" />
        </mxCell>
        <mxCell id="3VFxZQKgpR7OsNjRWWTR-19" value="初始化底部统计信息" style="whiteSpace=wrap;html=1;" vertex="1" parent="1">
          <mxGeometry x="40" y="560" width="100" height="40" as="geometry" />
        </mxCell>
        <mxCell id="3VFxZQKgpR7OsNjRWWTR-23" value="结束" style="whiteSpace=wrap;html=1;" vertex="1" parent="1">
          <mxGeometry x="40" y="640" width="100" height="40" as="geometry" />
        </mxCell>
        <mxCell id="3VFxZQKgpR7OsNjRWWTR-27" value="" style="shape=curlyBracket;whiteSpace=wrap;html=1;rounded=1;labelPosition=left;verticalLabelPosition=middle;align=right;verticalAlign=middle;rotation=-180;" vertex="1" parent="1">
          <mxGeometry x="180" y="350" width="20" height="230" as="geometry" />
        </mxCell>
        <mxCell id="3VFxZQKgpR7OsNjRWWTR-28" value="这个初始化过程可以异步并行执行" style="text;html=1;align=center;verticalAlign=middle;resizable=0;points=[];autosize=1;strokeColor=none;fillColor=none;" vertex="1" parent="1">
          <mxGeometry x="210" y="450" width="200" height="30" as="geometry" />
        </mxCell>
      </root>
    </mxGraphModel>
  </diagram>
</mxfile>
